<svg xmlns="http://www.w3.org/2000/svg" xmlns:xlink="http://www.w3.org/1999/xlink" width="200" zoomAndPan="magnify" viewBox="0 0 150 48" height="64" preserveAspectRatio="xMidYMid meet" version="1.0"><defs><g/><clipPath id="0b2c473a83"><path d="M 10.625 8.921875 L 76.855469 8.921875 L 76.855469 37.683594 L 10.625 37.683594 Z M 10.625 8.921875 " clip-rule="nonzero"/></clipPath></defs><g clip-path="url(#0b2c473a83)"><path fill="#1976d2" d="M 10.625 8.921875 L 76.550781 8.921875 L 76.550781 37.644531 L 10.625 37.644531 Z M 10.625 8.921875 " fill-opacity="1" fill-rule="nonzero"/></g><g fill="#ffffff" fill-opacity="1"><g transform="translate(12.569006, 28.707491)"><g><path d="M 7.34375 -2.5 C 7.757812 -2.5 8.164062 -2.5625 8.5625 -2.6875 C 8.957031 -2.8125 9.25 -2.9375 9.4375 -3.0625 L 9.71875 -3.25 L 10.890625 -0.890625 C 10.859375 -0.867188 10.804688 -0.832031 10.734375 -0.78125 C 10.660156 -0.726562 10.5 -0.632812 10.25 -0.5 C 10 -0.375 9.734375 -0.257812 9.453125 -0.15625 C 9.171875 -0.0625 8.796875 0.0195312 8.328125 0.09375 C 7.867188 0.175781 7.394531 0.21875 6.90625 0.21875 C 5.78125 0.21875 4.710938 -0.0546875 3.703125 -0.609375 C 2.691406 -1.160156 1.878906 -1.921875 1.265625 -2.890625 C 0.648438 -3.867188 0.34375 -4.921875 0.34375 -6.046875 C 0.34375 -6.898438 0.519531 -7.71875 0.875 -8.5 C 1.238281 -9.28125 1.722656 -9.945312 2.328125 -10.5 C 2.929688 -11.0625 3.632812 -11.507812 4.4375 -11.84375 C 5.238281 -12.175781 6.0625 -12.34375 6.90625 -12.34375 C 7.695312 -12.34375 8.421875 -12.25 9.078125 -12.0625 C 9.742188 -11.882812 10.210938 -11.703125 10.484375 -11.515625 L 10.890625 -11.234375 L 9.71875 -8.875 C 9.644531 -8.9375 9.539062 -9.007812 9.40625 -9.09375 C 9.269531 -9.175781 8.992188 -9.285156 8.578125 -9.421875 C 8.171875 -9.554688 7.757812 -9.625 7.34375 -9.625 C 6.675781 -9.625 6.078125 -9.515625 5.546875 -9.296875 C 5.015625 -9.085938 4.59375 -8.804688 4.28125 -8.453125 C 3.976562 -8.097656 3.742188 -7.71875 3.578125 -7.3125 C 3.421875 -6.90625 3.34375 -6.492188 3.34375 -6.078125 C 3.34375 -5.148438 3.6875 -4.320312 4.375 -3.59375 C 5.0625 -2.863281 6.050781 -2.5 7.34375 -2.5 Z M 7.34375 -2.5 "/></g></g></g><g fill="#ffffff" fill-opacity="1"><g transform="translate(24.377006, 28.707491)"><g><path d="M 0.34375 -6.078125 C 0.34375 -7.828125 0.9375 -9.304688 2.125 -10.515625 C 3.320312 -11.734375 4.765625 -12.34375 6.453125 -12.34375 C 8.148438 -12.34375 9.59375 -11.738281 10.78125 -10.53125 C 11.96875 -9.320312 12.5625 -7.835938 12.5625 -6.078125 C 12.5625 -4.296875 11.976562 -2.800781 10.8125 -1.59375 C 9.644531 -0.382812 8.191406 0.21875 6.453125 0.21875 C 4.679688 0.21875 3.21875 -0.378906 2.0625 -1.578125 C 0.914062 -2.773438 0.34375 -4.273438 0.34375 -6.078125 Z M 3.328125 -6.078125 C 3.328125 -5.429688 3.421875 -4.847656 3.609375 -4.328125 C 3.804688 -3.804688 4.148438 -3.363281 4.640625 -3 C 5.128906 -2.632812 5.734375 -2.453125 6.453125 -2.453125 C 7.484375 -2.453125 8.257812 -2.804688 8.78125 -3.515625 C 9.3125 -4.222656 9.578125 -5.078125 9.578125 -6.078125 C 9.578125 -7.066406 9.304688 -7.914062 8.765625 -8.625 C 8.234375 -9.332031 7.460938 -9.6875 6.453125 -9.6875 C 5.453125 -9.6875 4.679688 -9.332031 4.140625 -8.625 C 3.597656 -7.914062 3.328125 -7.066406 3.328125 -6.078125 Z M 3.328125 -6.078125 "/></g></g></g><g fill="#ffffff" fill-opacity="1"><g transform="translate(38.008407, 28.707491)"><g><path d="M 7.046875 -12.125 L 11.9375 0 L 8.96875 0 L 8.078125 -2.421875 L 3.453125 -2.421875 L 2.5625 0 L -0.40625 0 L 4.484375 -12.125 Z M 7.125 -4.859375 L 5.78125 -8.375 L 5.75 -8.375 L 4.390625 -4.859375 Z M 7.125 -4.859375 "/></g></g></g><g fill="#ffffff" fill-opacity="1"><g transform="translate(50.272266, 28.707491)"><g><path d="M 7.34375 -2.5 C 7.757812 -2.5 8.164062 -2.5625 8.5625 -2.6875 C 8.957031 -2.8125 9.25 -2.9375 9.4375 -3.0625 L 9.71875 -3.25 L 10.890625 -0.890625 C 10.859375 -0.867188 10.804688 -0.832031 10.734375 -0.78125 C 10.660156 -0.726562 10.5 -0.632812 10.25 -0.5 C 10 -0.375 9.734375 -0.257812 9.453125 -0.15625 C 9.171875 -0.0625 8.796875 0.0195312 8.328125 0.09375 C 7.867188 0.175781 7.394531 0.21875 6.90625 0.21875 C 5.78125 0.21875 4.710938 -0.0546875 3.703125 -0.609375 C 2.691406 -1.160156 1.878906 -1.921875 1.265625 -2.890625 C 0.648438 -3.867188 0.34375 -4.921875 0.34375 -6.046875 C 0.34375 -6.898438 0.519531 -7.71875 0.875 -8.5 C 1.238281 -9.28125 1.722656 -9.945312 2.328125 -10.5 C 2.929688 -11.0625 3.632812 -11.507812 4.4375 -11.84375 C 5.238281 -12.175781 6.0625 -12.34375 6.90625 -12.34375 C 7.695312 -12.34375 8.421875 -12.25 9.078125 -12.0625 C 9.742188 -11.882812 10.210938 -11.703125 10.484375 -11.515625 L 10.890625 -11.234375 L 9.71875 -8.875 C 9.644531 -8.9375 9.539062 -9.007812 9.40625 -9.09375 C 9.269531 -9.175781 8.992188 -9.285156 8.578125 -9.421875 C 8.171875 -9.554688 7.757812 -9.625 7.34375 -9.625 C 6.675781 -9.625 6.078125 -9.515625 5.546875 -9.296875 C 5.015625 -9.085938 4.59375 -8.804688 4.28125 -8.453125 C 3.976562 -8.097656 3.742188 -7.71875 3.578125 -7.3125 C 3.421875 -6.90625 3.34375 -6.492188 3.34375 -6.078125 C 3.34375 -5.148438 3.6875 -4.320312 4.375 -3.59375 C 5.0625 -2.863281 6.050781 -2.5 7.34375 -2.5 Z M 7.34375 -2.5 "/></g></g></g><g fill="#ffffff" fill-opacity="1"><g transform="translate(62.080266, 28.707491)"><g><path d="M 3.640625 -4.859375 L 3.640625 0 L 0.875 0 L 0.875 -12.125 L 3.640625 -12.125 L 3.640625 -7.296875 L 7.5625 -7.296875 L 7.5625 -12.125 L 10.328125 -12.125 L 10.328125 0 L 7.5625 0 L 7.5625 -4.859375 Z M 3.640625 -4.859375 "/></g></g></g><path stroke-linecap="butt" transform="matrix(0.733958, 0, 0, 0.734694, 6.232652, 4.334696)" fill="none" stroke-linejoin="miter" d="M 0.00234715 0.501473 L 187.199085 0.501473 " stroke="#1976d2" stroke-width="1" stroke-opacity="1" stroke-miterlimit="4"/><path stroke-linecap="butt" transform="matrix(0.000000000000000045, 0.739136, -0.734694, 0.000000000000000045, 6.22806, 4.339287)" fill="none" stroke-linejoin="miter" d="M 0.000752609 0.501821 L 51.697531 0.501821 " stroke="#1976d2" stroke-width="1" stroke-opacity="1" stroke-miterlimit="4"/><g fill="#1976d2" fill-opacity="1"><g transform="translate(79.366086, 32.326531)"><g><path d="M 1.40625 -19.40625 L 7.4375 -19.40625 C 9.25 -19.40625 10.695312 -19.015625 11.78125 -18.234375 C 12.863281 -17.460938 13.40625 -16.207031 13.40625 -14.46875 C 13.40625 -12.519531 12.597656 -11.128906 10.984375 -10.296875 C 13.742188 -9.816406 15.125 -8.1875 15.125 -5.40625 C 15.125 -3.78125 14.554688 -2.472656 13.421875 -1.484375 C 12.296875 -0.492188 10.742188 0 8.765625 0 L 1.40625 0 Z M 5.828125 -11.8125 L 6.1875 -11.8125 C 7.175781 -11.8125 7.910156 -11.984375 8.390625 -12.328125 C 8.878906 -12.671875 9.125 -13.234375 9.125 -14.015625 C 9.125 -15.328125 8.144531 -15.984375 6.1875 -15.984375 L 5.828125 -15.984375 Z M 5.828125 -3.40625 L 7.21875 -3.40625 C 9.382812 -3.40625 10.46875 -4.128906 10.46875 -5.578125 C 10.46875 -6.429688 10.195312 -7.046875 9.65625 -7.421875 C 9.113281 -7.804688 8.300781 -8 7.21875 -8 L 5.828125 -8 Z M 5.828125 -3.40625 "/></g></g></g><g fill="#1976d2" fill-opacity="1"><g transform="translate(96.199423, 32.326531)"><g><path d="M 0.546875 -9.71875 C 0.546875 -12.519531 1.5 -14.890625 3.40625 -16.828125 C 5.320312 -18.773438 7.628906 -19.75 10.328125 -19.75 C 13.035156 -19.75 15.335938 -18.78125 17.234375 -16.84375 C 19.128906 -14.90625 20.078125 -12.53125 20.078125 -9.71875 C 20.078125 -6.875 19.144531 -4.484375 17.28125 -2.546875 C 15.414062 -0.609375 13.097656 0.359375 10.328125 0.359375 C 7.484375 0.359375 5.140625 -0.597656 3.296875 -2.515625 C 1.460938 -4.441406 0.546875 -6.84375 0.546875 -9.71875 Z M 5.3125 -9.71875 C 5.3125 -8.695312 5.46875 -7.765625 5.78125 -6.921875 C 6.09375 -6.085938 6.640625 -5.378906 7.421875 -4.796875 C 8.210938 -4.210938 9.179688 -3.921875 10.328125 -3.921875 C 11.972656 -3.921875 13.210938 -4.484375 14.046875 -5.609375 C 14.890625 -6.742188 15.3125 -8.113281 15.3125 -9.71875 C 15.3125 -11.300781 14.882812 -12.660156 14.03125 -13.796875 C 13.175781 -14.929688 11.941406 -15.5 10.328125 -15.5 C 8.722656 -15.5 7.484375 -14.929688 6.609375 -13.796875 C 5.742188 -12.660156 5.3125 -11.300781 5.3125 -9.71875 Z M 5.3125 -9.71875 "/></g></g></g><g fill="#1976d2" fill-opacity="1"><g transform="translate(117.993424, 32.326531)"><g><path d="M 0.1875 -15.515625 L 0.1875 -19.40625 L 13.828125 -19.40625 L 13.828125 -15.515625 L 9.21875 -15.515625 L 9.21875 0 L 4.796875 0 L 4.796875 -15.515625 Z M 0.1875 -15.515625 "/></g></g></g><path stroke-linecap="butt" transform="matrix(0.733958, 0, 0, 0.734694, 6.232652, 41.951021)" fill="none" stroke-linejoin="miter" d="M 0.00234715 0.502647 L 187.199085 0.502647 " stroke="#1976d2" stroke-width="1" stroke-opacity="1" stroke-miterlimit="4"/><path stroke-linecap="butt" transform="matrix(0.000000000000000045, 0.732054, -0.734694, 0.000000000000000045, 144.130097, 4.339287)" fill="none" stroke-linejoin="miter" d="M 0.000759889 0.501404 L 52.197624 0.501404 " stroke="#1976d2" stroke-width="1" stroke-opacity="1" stroke-miterlimit="4"/></svg>